<?xml version="1.0" encoding="UTF-8" standalone="no"?>
<!-- Created with Inkscape (http://www.inkscape.org/) -->
<svg id="svg2" xmlns:rdf="http://www.w3.org/1999/02/22-rdf-syntax-ns#" xmlns="http://www.w3.org/2000/svg" height="24" width="24" version="1.1" xmlns:cc="http://creativecommons.org/ns#" xmlns:xlink="http://www.w3.org/1999/xlink" xmlns:dc="http://purl.org/dc/elements/1.1/">
 <metadata id="metadata27">
  <rdf:RDF>
   <cc:Work rdf:about="">
    <dc:format>image/svg+xml</dc:format>
    <dc:type rdf:resource="http://purl.org/dc/dcmitype/StillImage"/>
    <dc:title/>
   </cc:Work>
  </rdf:RDF>
 </metadata>
 <defs id="defs4">
  <radialGradient id="radialGradient3098" gradientUnits="userSpaceOnUse" cy="20.5" cx="15" gradientTransform="matrix(1.8793 3.9617e-8 -.0000050558 .34168 -17.189 14.996)" r="5.8534">
   <stop id="stop3930" stop-color="#888a85" stop-opacity=".52995" offset="0"/>
   <stop id="stop3932" stop-color="#888a85" stop-opacity="0" offset="1"/>
  </radialGradient>
 </defs>
 <g id="g3091" transform="translate(1.0007 -1)">
  <path id="path3926" fill-rule="evenodd" fill="url(#radialGradient3098)" d="m21.999 22a11 2 0 0 1 -22 0 11 2 0 1 1 22 0z"/>
  <path id="path3806" d="m10 10 1.5-1.5 3 3l-1.5 1.5z" stroke="#a40000" stroke-width="1px" fill="#c00"/>
  <path id="path3808" d="m1.5 21.5 2-2" stroke="#888a85" stroke-linecap="round" stroke-width="1px" fill="none"/>
  <path id="path3804" stroke-linejoin="round" d="m9.5 9.5 0.5 2.5-6 6-2 2.5 0.5 0.5 2.5-2 6-6l2.5 0.5z" stroke="#a40000" stroke-width="1px" fill="#c00"/>
  <path id="path3793" stroke-linejoin="round" d="m16.5 2.5-0.955 0.9548-0.045 1.0452-0.5 0.5-0.567-0.4332-3.433 3.4332 4 4 3.5-3.5-0.5-0.5l0.5-0.5h1l1-1c-1.5-0.5-3.5-2.5-4-4z" stroke="#a40000" stroke-width="1px" fill="#c00"/>
 </g>
</svg>
