<?xml version="1.0" encoding="UTF-8" standalone="no"?>
<!-- Created with Inkscape (http://www.inkscape.org/) -->
<svg id="svg2989" xmlns:rdf="http://www.w3.org/1999/02/22-rdf-syntax-ns#" xmlns="http://www.w3.org/2000/svg" height="24" width="24" version="1.1" xmlns:cc="http://creativecommons.org/ns#" xmlns:dc="http://purl.org/dc/elements/1.1/">
 <metadata id="metadata2994">
  <rdf:RDF>
   <cc:Work rdf:about="">
    <dc:format>image/svg+xml</dc:format>
    <dc:type rdf:resource="http://purl.org/dc/dcmitype/StillImage"/>
    <dc:title/>
   </cc:Work>
  </rdf:RDF>
 </metadata>
 <g id="g3321" transform="translate(1 -.99889)">
  <path id="path2989" stroke-linejoin="round" d="m13.138 8.2631a5.2582 5.2582 0 0 1 0.97074 9.0443" stroke="#000" stroke-linecap="round" stroke-width=".44721" fill="none"/>
  <path id="path2995" d="m12.307 12.994a1.3065 1.3065 0 0 1 -2.6131 0 1.3065 1.3065 0 1 1 2.6131 0z"/>
  <path id="path3053" d="m10.875 8.3438c-2.9256 0.0238-5.865 1.035-8.2812 3.0622-0.5822 0.489-1.1053 1.012-1.5938 1.594 0.4885 0.582 1.0116 1.105 1.5938 1.594 5.5228 4.634 13.772 3.929 18.406-1.594-2.607-3.1066-6.363-4.687-10.125-4.6562z" stroke="#000" stroke-width="1.5" fill="none"/>
  <path id="path3057" stroke-linejoin="round" d="m7.9014 17.315a5.2582 5.2582 0 0 1 0.5896 -8.8691" stroke="#000" stroke-linecap="round" stroke-width=".44721" fill="none"/>
 </g>
</svg>
