<?xml version="1.0" encoding="UTF-8" standalone="no"?>
<svg
   xmlns:dc="http://purl.org/dc/elements/1.1/"
   xmlns:cc="http://creativecommons.org/ns#"
   xmlns:rdf="http://www.w3.org/1999/02/22-rdf-syntax-ns#"
   xmlns:svg="http://www.w3.org/2000/svg"
   xmlns="http://www.w3.org/2000/svg"
   xmlns:xlink="http://www.w3.org/1999/xlink"
   version="1.1"
   width="22"
   height="22"
   id="svg2">
  <metadata
     id="metadata27">
    <rdf:RDF>
      <cc:Work
         rdf:about="">
        <dc:format>image/svg+xml</dc:format>
        <dc:type
           rdf:resource="http://purl.org/dc/dcmitype/StillImage" />
        <dc:title></dc:title>
      </cc:Work>
    </rdf:RDF>
  </metadata>
  <defs
     id="defs4">
    <radialGradient
       cx="15"
       cy="20.5"
       r="5.8534002"
       id="radialGradient3934"
       gradientUnits="userSpaceOnUse"
       gradientTransform="matrix(1.0000001,4.9521507e-8,-2.6903182e-6,0.42710347,6.4579919e-5,11.744378)">
      <stop
         id="stop3930"
         style="stop-color:#888a85;stop-opacity:0.5299539"
         offset="0" />
      <stop
         id="stop3932"
         style="stop-color:#888a85;stop-opacity:0"
         offset="1" />
    </radialGradient>
    <radialGradient
       cx="15"
       cy="20.5"
       r="5.8534002"
       id="radialGradient3009"
       xlink:href="#radialGradient3934"
       gradientUnits="userSpaceOnUse"
       gradientTransform="matrix(1.8792554,3.9617209e-8,-5.0557945e-6,0.34168281,-17.188707,12.995502)" />
  </defs>
  <path
     d="M 21.999281,20 A 11.00022,2.0000344 0 0 1 -0.00115994,20 11.00022,2.0000344 0 1 1 21.999281,20 z"
     id="path3926"
     style="fill:url(#radialGradient3009);fill-rule:evenodd" />
  <path
     d="m 10,8 1.5,-1.5 3,3 L 13,11 z"
     id="path3806"
     style="fill:#cc0000;stroke:#a40000;stroke-width:1px;stroke-linecap:butt;stroke-linejoin:miter;stroke-opacity:1" />
  <path
     d="m 1.5,19.5 2,-2"
     id="path3808"
     style="fill:none;stroke:#888a85;stroke-width:1px;stroke-linecap:round;stroke-linejoin:miter;stroke-opacity:1" />
  <path
     d="M 9.5,7.5 10,10 3.9999998,16 2,18.5 2.5,19 4.9999998,17 11,11 l 2.5,0.5 z"
     id="path3804"
     style="fill:#cc0000;stroke:#a40000;stroke-width:1px;stroke-linecap:butt;stroke-linejoin:round;stroke-opacity:1" />
  <path
     d="M 16.5,0.5 15.545182,1.4548178 15.5,2.5 15,3 14.433209,2.5667912 11,6 15,10 18.5,6.5 18,6 l 0.5,-0.5 1,0 1,-1 C 19,4 17,2 16.5,0.5 z"
     id="path3793"
     style="fill:#cc0000;stroke:#a40000;stroke-width:1px;stroke-linecap:butt;stroke-linejoin:round;stroke-opacity:1" />
</svg>
